# xmcd
#
# Track frame offsets:
#	150
#	20868
#	41298
#	70535
#	87899
#	103919
#	122874
#	135140
#	151409
#	168034
#	186861
#	209581
#	229794
#	255582
#	275932
#	294908
#
# Disc length: 4194
#
# Revision: 4
# Processed by: cddbd v1.5.1PL0 Copyright (c) Steve Scherf et al.
# Submitted via: tcd 2.0b
# Normalized: r3:TDELIM( - )
#
DISCID=de106010
DTITLE=John - Rap Mix
DYEAR=1900
DGENRE=
TTITLE0=Jedi Mind Tricks - Heavenly Divine
TTITLE1=Gorillaz - Clint Eastwood
TTITLE2=Tupac and Dr. Dre - California Love
TTITLE3=Jedi Mind Tricks - I Against I
TTITLE4=Snoop Dogg - Gin and Juice
TTITLE5=Outkast - So Fresh and Clean
TTITLE6=Dr. Dre, Snoop Dog - The Next Episode
TTITLE7=Jedi Mind Tricks - Death March
TTITLE8=Jedi Mind Tricks - ?
TTITLE9=Jedi Mind Tricks f. Jurassic 5 - ?
TTITLE10=Ludacris - Southern Hospitality
TTITLE11=NWA - Straight Outta Compton
TTITLE12=R Kelly - I Wish
TTITLE13=Tupac - Changes
TTITLE14=Jedi Mind Tricks f. Virtuoso - Beatdown
TTITLE15=Ja Rule f. Vita - Put it on Me
EXTD=
EXTT0=
EXTT1=
EXTT2=
EXTT3=
EXTT4=
EXTT5=
EXTT6=
EXTT7=
EXTT8=
EXTT9=
EXTT10=
EXTT11=
EXTT12=
EXTT13=
EXTT14=
EXTT15=
PLAYORDER=
